<svg width="629" height="666" viewBox="0 0 629 666" fill="none" xmlns="http://www.w3.org/2000/svg">
<path fill-rule="evenodd" clip-rule="evenodd" d="M524.93 157.414C524.502 156.99 523.487 156.84 523.016 156.713C521.053 156.186 519.032 155.957 517.032 155.957C510.864 155.97 504.596 156.795 498.53 158.223C494.679 159.128 490.023 162.18 486.192 160.523C479.519 157.636 472.773 157.778 466.441 161.899C460.652 165.668 456.257 172.825 453.693 180.559C453.305 181.727 451.736 186.024 451.291 188.92C451.101 189.512 450.919 190.108 450.754 190.713C450.288 192.432 449.868 194.18 449.479 195.933C449.313 196.68 448.895 198.33 449.391 198.649C448.598 200.645 447.894 202.701 447.309 204.824C445.605 210.999 443.742 217.774 443.143 224.318C442.922 226.742 442.913 229.179 443.119 231.607C443.221 232.808 443.179 235.22 443.776 236.134C445.043 238.07 445.694 235.359 445.551 234.068C444.46 224.228 446.567 214.986 449.063 205.736C450.677 199.756 453.329 194.283 456.301 189.328C458.705 185.316 461.284 182.157 464.58 179.498C468.612 176.245 472.921 173.616 477.19 170.979C479.999 169.244 482.811 167.554 485.697 166.06C486.339 165.727 487.348 164.873 488.06 164.87C489.565 164.863 491.699 166.377 493.152 166.939C497.934 168.792 502.776 171.164 507.718 172.111C510.889 172.718 513.858 172.034 516.822 170.595C517.125 170.449 517.634 170.071 518.256 169.531C520.457 168.377 522.539 166.925 524.352 164.83C525.395 163.623 526.344 162.063 527.208 160.635C527.466 160.209 527.581 159.719 527.585 159.254C527.781 159.115 527.91 158.951 527.94 158.761C528.156 157.356 526.189 157.331 524.93 157.414Z" fill="#9EBEB2" fill-opacity="0.8"/>
<path fill-rule="evenodd" clip-rule="evenodd" d="M42.0624 261.738C40.8523 263.073 39.6655 264.436 38.5076 265.856C37.6251 266.937 36.0634 268.232 35.7466 269.871C35.4173 271.574 36.4569 273.168 37.2782 274.198C41.6213 279.643 46.5118 283.324 52.5299 283.937C61.7964 284.88 69.8608 281.655 77.901 275.31C83.5485 270.852 87.2895 264.259 88.1065 255.357C94.8323 259.166 101.337 264.417 106.865 270.861C109.593 274.04 111.942 277.563 114.114 281.468C115.506 283.97 116.852 286.511 118.102 289.151C118.644 290.297 119.197 292.331 120.093 292.991C121.146 293.767 122.418 292.551 122.366 290.957C122.322 289.629 121.271 288.09 120.779 287.005C119.962 285.203 119.133 283.413 118.26 281.661C116.848 278.824 115.388 276.028 113.795 273.373C110.216 267.407 105.663 262.481 100.943 258.278C91.8883 250.217 81.9506 245.139 70.933 244.708C64.1584 244.444 58.4592 247.598 52.6658 252.309C49.0588 255.241 45.3354 258.125 42.0624 261.738Z" fill="#C6D7DE" fill-opacity="0.77"/>
<path fill-rule="evenodd" clip-rule="evenodd" d="M129.941 222.747C122.881 212.839 115.797 203.055 107.909 194.33C103.261 189.189 98.3622 184.514 93.5645 179.64C94.1177 180.301 94.6605 180.98 95.1905 181.677C93.6928 180.292 91.7325 179.509 90.1451 178.226C88.374 176.796 86.6807 175.159 85.0203 173.51C81.7788 170.291 78.5863 167.011 75.2542 163.961C71.5421 160.562 67.695 157.422 63.9196 154.15C60.7154 151.375 57.4721 148.337 54.0443 146.067C52.1761 144.831 50.3034 143.365 48.4276 142.075C47.7997 141.643 41.4293 136.162 41.4453 136.144C41.7974 135.784 45.0032 137.836 45.499 138.112C46.9472 138.919 48.3321 139.882 49.7244 140.844C48.9602 138.79 48.3553 136.631 48.026 134.359C47.9242 133.658 47.1092 128.553 47.5263 128.125C47.7346 127.911 49.767 137.045 49.871 137.922C49.9556 138.636 49.9432 139.663 50.1145 140.338C50.3911 141.429 50.3772 141.099 50.9866 141.715C52.1034 142.841 53.586 143.545 54.7948 144.485C55.4466 144.981 57.4647 146.948 58.6803 147.509C62.3583 149.943 66.0863 153.688 69.581 156.798C68.6639 154.449 67.9659 151.993 67.4569 149.418C67.3358 148.808 66.0297 143.326 66.3466 143C66.7031 142.633 69.1919 151.007 69.3394 151.799C69.6132 153.272 69.6701 154.91 70.0132 156.343C70.3892 157.916 71.5637 158.473 72.622 159.389C76.5161 162.761 80.2771 166.344 83.9748 170.091C88.01 160.312 83.3575 148.503 79.4369 140.297C76.6099 134.383 72.8056 129.314 68.7878 124.887C63.4262 118.98 57.2918 114.261 51.1649 109.944C44.0258 104.915 36.3098 101.798 28.288 100.359C24.0924 99.6047 19.8002 99.6265 15.5622 99.868C13.492 99.9849 11.5049 100.359 9.52095 101.28C8.62676 101.695 7.76256 102.218 6.9204 102.804C6.28053 103.248 4.73267 103.718 4.36475 104.381C1.3363 109.754 -0.212998 115.106 0.0235982 121.857C0.247286 128.246 1.72812 134.639 3.73778 140.339C5.97586 146.685 8.8543 152.445 12.6189 157.28C15.4911 160.968 18.7022 164.178 21.8921 167.347C33.2377 178.615 47.6221 188.415 62.3166 185.897C67.0733 185.083 71.5974 182.816 75.825 179.735C76.8216 179.009 77.8118 178.275 78.7522 177.418C79.3864 176.84 81.0813 174.237 81.7187 174.142C82.5934 174.013 84.4759 176.435 85.2961 177.173C91.5289 182.78 97.5981 188.691 103.54 194.84C109.862 201.382 115.874 208.371 121.709 215.687C124.191 218.798 126.657 221.918 129.066 225.134C129.627 225.883 130.999 228.638 132.016 228.763C132.659 228.843 133.093 228.093 133.002 227.282C132.842 225.872 130.665 223.762 129.941 222.747Z" fill="#B8CFC6" fill-opacity="0.9"/>
<path fill-rule="evenodd" clip-rule="evenodd" d="M520.051 180.769C517.317 179.955 514.297 180.017 511.512 180.084C496.572 180.361 481.902 190 472.354 205.401C464.226 218.513 461.991 234.814 460.385 251.293C460.226 252.928 460.158 254.554 460.068 256.194C460.049 256.546 460.02 256.86 459.989 257.156C459.358 257.925 459.026 258.822 459.4 259.807C458.009 263.956 456.832 268.21 455.822 272.597C452.85 285.512 449.828 298.672 451.689 312.252C452.125 304.779 453.04 297.137 454.135 289.786C454.197 289.364 454.265 288.946 454.336 288.529C454.344 288.485 454.35 288.44 454.357 288.396C454.745 286.146 455.248 283.963 455.861 281.813C455.867 281.789 455.874 281.766 455.88 281.744C455.961 281.461 456.047 281.179 456.132 280.898C456.307 280.316 456.488 279.734 456.679 279.156C456.743 278.959 456.805 278.76 456.865 278.56C457.757 275.581 458.133 272.225 458.932 269.144C459.123 268.443 459.323 267.745 459.532 267.05C459.545 267.01 459.557 266.969 459.57 266.929C460.136 265.06 460.76 263.214 461.422 261.387C461.781 261.019 461.972 260.107 462.283 259.278C462.346 259.114 462.847 258.024 462.996 257.396C463.386 256.37 463.773 255.344 464.165 254.319C464.154 254.326 464.142 254.331 464.13 254.338C464.522 253.353 464.916 252.374 465.306 251.399C465.392 251.185 465.478 250.97 465.565 250.755C465.705 250.413 465.846 250.071 465.985 249.73C467.294 246.539 468.681 243.412 470.122 240.323C470.637 239.221 471.865 237.64 472.101 236.403C472.11 236.356 472.111 236.313 472.117 236.27C475.244 230.284 478.843 224.765 483.16 220.391C482.638 221.16 481.529 223.768 481.236 224.285C480.338 225.866 479.364 227.338 478.387 228.828C476.635 231.497 474.926 234.25 473.406 237.162C470.627 242.488 468.231 248.092 465.964 253.809C465.943 253.842 465.919 253.874 465.899 253.909C464.76 255.822 464.043 258.713 463.224 260.901C466.468 258.854 470.056 257.52 473.385 255.701C476.705 253.889 479.935 251.87 483.054 249.5C487.198 246.349 491.498 242.792 495.413 238.767C499.901 234.974 503.672 229.752 507.001 224.273C510.939 217.789 514.549 211.25 516.781 203.378C517.878 199.51 518.74 195.476 519.252 191.395C519.274 191.218 519.302 191.025 519.334 190.825C519.857 189.416 520.325 187.975 520.717 186.501C521.34 184.162 522.813 181.59 520.051 180.769Z" fill="#9EBEB2" fill-opacity="0.8"/>
<path fill-rule="evenodd" clip-rule="evenodd" d="M72.3158 211.683C71.4596 210.419 70.4975 209.279 69.3675 208.465C69.0819 208.259 66.9544 206.883 66.8158 207.184C66.493 207.888 72.0585 211.279 72.3158 211.683ZM82.4034 203.239C82.3962 203.292 83.1338 204.998 83.3351 205.522C83.7624 206.638 84.1568 207.774 84.5281 208.914C83.9789 206.902 83.4136 205.036 82.4034 203.239ZM30.815 217.125C30.1045 217.436 29.2503 216.207 30.1718 215.904C30.9175 215.662 30.881 215.605 31.2158 214.785C31.4876 214.121 31.6551 213.31 31.8937 212.613C32.3998 211.134 32.9738 209.722 33.6785 208.4C35.1887 205.566 37.0286 203.124 39.0923 201.066C42.6938 197.475 46.7319 194.192 51.0156 192.543C57.8265 189.921 65.5784 189.759 72.4 191.577C76.6252 192.703 80.4856 194.661 83.291 199.297C84.6932 201.613 85.794 204.327 86.2751 207.315C86.4009 208.096 86.3769 208.965 86.534 209.73C86.7762 210.907 86.6695 210.593 87.6789 210.821C88.7805 211.072 89.8813 211.326 90.9821 211.586C93.8644 212.266 96.7635 212.987 99.5721 214.089C100.496 214.452 101.4 214.896 102.284 215.41C102.951 215.799 105.611 217.022 105.934 218.204C106.472 220.172 104.67 219.28 104.109 218.851C103.618 218.476 103.115 218.125 102.604 217.803C101.317 216.992 99.977 216.364 98.606 215.865C97.1243 215.325 95.613 214.922 94.1065 214.518C92.7027 214.142 91.2932 213.8 89.8813 213.472C89.0972 213.291 88.3131 213.114 87.5282 212.938C87.2596 212.877 86.7874 212.561 86.8227 213.036C85.1727 212.602 83.3888 212.665 81.7083 212.546C79.6502 212.399 77.5841 212.279 75.5188 212.366C74.0292 212.43 72.5387 212.563 71.0563 212.836C70.1904 212.996 69.3383 213.228 68.4887 213.523C68.022 213.686 66.1816 214.03 65.9274 214.584C66.0366 214.346 68.0677 214.578 68.3262 214.564C69.3602 214.511 70.386 214.371 71.4163 214.215C73.3284 213.923 75.2406 213.771 77.1584 213.793C77.1512 214.252 75.8411 215.069 75.5212 215.373C74.8044 216.056 74.1173 216.799 73.4767 217.615C72.3487 219.052 70.9969 220.832 70.2168 222.535C70.4469 222.033 71.5814 221.38 71.9839 220.997C72.6293 220.383 73.2619 219.727 73.86 219.027C74.4116 218.38 74.9271 217.681 75.4338 216.967C75.9405 216.254 76.6276 214.769 77.2939 214.294C77.334 214.264 77.6242 214.577 77.7886 214.471C77.9553 214.364 78.1622 213.828 78.2039 213.806C78.8236 213.481 80.0006 213.886 80.6524 213.928C82.3417 214.034 84.0302 214.172 85.7178 214.299C86.2414 214.338 86.6856 214.176 86.8836 214.701C87.0937 215.263 86.708 216.737 86.5982 217.348C86.1909 219.616 85.4685 221.649 84.33 223.407C82.199 226.699 79.57 228.893 76.6012 230.361C65.2289 235.984 53.1302 238.236 41.7613 232.387C37.0546 229.965 29.9662 225.638 30.815 217.125Z" fill="#9EBEB2" fill-opacity="0.8"/>
<g opacity="0.6">
<path opacity="0.6" fill-rule="evenodd" clip-rule="evenodd" d="M620.25 502.603C635.242 592.281 428.892 665.889 244.865 637.458C60.8369 609.028 -33.4906 454.348 46.9733 362.788C127.437 271.226 605.258 412.925 620.25 502.603Z" fill="#C6D7DE" fill-opacity="0.77"/>
</g>
<path d="M221.435 14.2192H106.785C103.242 14.2192 100.371 18.1326 100.371 22.96V335.443C100.371 340.271 103.242 344.184 106.785 344.184H221.435C224.977 344.184 227.849 340.271 227.849 335.443V22.96C227.849 18.1326 224.977 14.2192 221.435 14.2192Z" fill="#F2F2F2"/>
<path fill-rule="evenodd" clip-rule="evenodd" d="M163.709 323.425C170.351 323.425 175.735 316.087 175.735 307.036C175.735 297.984 170.351 290.647 163.709 290.647C157.067 290.647 151.683 297.984 151.683 307.036C151.683 316.087 157.067 323.425 163.709 323.425Z" fill="white" fill-opacity="0.9"/>
<path fill-rule="evenodd" clip-rule="evenodd" d="M153.286 36.0712C154.172 36.0712 154.89 35.0929 154.89 33.886C154.89 32.6791 154.172 31.7008 153.286 31.7008C152.4 31.7008 151.683 32.6791 151.683 33.886C151.683 35.0929 152.4 36.0712 153.286 36.0712Z" fill="white" fill-opacity="0.9"/>
<path d="M174.132 31.7008H160.502C159.616 31.7008 158.898 32.6791 158.898 33.886C158.898 35.0928 159.616 36.0712 160.502 36.0712H174.132C175.017 36.0712 175.735 35.0928 175.735 33.886C175.735 32.6791 175.017 31.7008 174.132 31.7008Z" fill="white" fill-opacity="0.9"/>
<path d="M213.418 44.8119H114.803C113.032 44.8119 111.596 46.7686 111.596 49.1823V99.4419C111.596 101.856 113.032 103.812 114.803 103.812H213.418C215.189 103.812 216.625 101.856 216.625 99.4419V49.1823C216.625 46.7686 215.189 44.8119 213.418 44.8119Z" fill="white" fill-opacity="0.9"/>
<path d="M198.987 62.512H145.27C143.941 62.512 142.864 63.9795 142.864 65.7898V68.0843C142.864 69.8945 143.941 71.3621 145.27 71.3621H198.987C200.315 71.3621 201.392 69.8945 201.392 68.0843V65.7898C201.392 63.9795 200.315 62.512 198.987 62.512Z" fill="#C6D7DE" fill-opacity="0.77"/>
<path d="M179.744 77.2621H145.269C143.94 77.2621 142.863 78.7296 142.863 80.5399V82.8343C142.863 84.6446 143.94 86.1121 145.269 86.1121H179.744C181.072 86.1121 182.149 84.6446 182.149 82.8343V80.5399C182.149 78.7296 181.072 77.2621 179.744 77.2621Z" fill="#C6D7DE" fill-opacity="0.77"/>
<path fill-rule="evenodd" clip-rule="evenodd" d="M128.432 87.4233C133.745 87.4233 138.053 81.5528 138.053 74.3121C138.053 67.0715 133.745 61.2009 128.432 61.2009C123.118 61.2009 118.811 67.0715 118.811 74.3121C118.811 81.5528 123.118 87.4233 128.432 87.4233Z" fill="#C6D7DE" fill-opacity="0.77"/>
<path d="M213.417 112.553H114.802C113.031 112.553 111.595 114.51 111.595 116.923V154.072C111.595 156.485 113.031 158.442 114.802 158.442H213.417C215.188 158.442 216.624 156.485 216.624 154.072V116.923C216.624 114.51 215.188 112.553 213.417 112.553Z" fill="white" fill-opacity="0.9"/>
<path d="M198.987 126.32H145.27C143.941 126.32 142.864 127.787 142.864 129.598V129.925C142.864 131.736 143.941 133.203 145.27 133.203H198.987C200.315 133.203 201.392 131.736 201.392 129.925V129.598C201.392 127.787 200.315 126.32 198.987 126.32Z" fill="#C6D7DE" fill-opacity="0.77"/>
<path d="M179.744 137.792H145.269C143.94 137.792 142.863 139.26 142.863 141.07V141.398C142.863 143.208 143.94 144.675 145.269 144.675H179.744C181.072 144.675 182.149 143.208 182.149 141.398V141.07C182.149 139.26 181.072 137.792 179.744 137.792Z" fill="#C6D7DE" fill-opacity="0.77"/>
<path fill-rule="evenodd" clip-rule="evenodd" d="M128.432 148.609C133.745 148.609 138.053 142.738 138.053 135.498C138.053 128.257 133.745 122.386 128.432 122.386C123.118 122.386 118.811 128.257 118.811 135.498C118.811 142.738 123.118 148.609 128.432 148.609Z" fill="#C6D7DE" fill-opacity="0.77"/>
<path d="M213.417 167.183H114.802C113.031 167.183 111.595 169.14 111.595 171.553V208.702C111.595 211.115 113.031 213.072 114.802 213.072H213.417C215.188 213.072 216.624 211.115 216.624 208.702V171.553C216.624 169.14 215.188 167.183 213.417 167.183Z" fill="white" fill-opacity="0.9"/>
<path d="M198.987 180.95H145.27C143.941 180.95 142.864 182.417 142.864 184.228V184.555C142.864 186.366 143.941 187.833 145.27 187.833H198.987C200.315 187.833 201.392 186.366 201.392 184.555V184.228C201.392 182.417 200.315 180.95 198.987 180.95Z" fill="#C6D7DE" fill-opacity="0.77"/>
<path d="M179.744 192.422H145.269C143.94 192.422 142.863 193.89 142.863 195.7V196.028C142.863 197.838 143.94 199.305 145.269 199.305H179.744C181.072 199.305 182.149 197.838 182.149 196.028V195.7C182.149 193.89 181.072 192.422 179.744 192.422Z" fill="#C6D7DE" fill-opacity="0.77"/>
<path fill-rule="evenodd" clip-rule="evenodd" d="M128.432 203.239C133.745 203.239 138.053 197.368 138.053 190.128C138.053 182.887 133.745 177.016 128.432 177.016C123.118 177.016 118.811 182.887 118.811 190.128C118.811 197.368 123.118 203.239 128.432 203.239Z" fill="#C6D7DE" fill-opacity="0.77"/>
<path d="M213.417 221.813H114.802C113.031 221.813 111.595 223.77 111.595 226.183V263.332C111.595 265.745 113.031 267.702 114.802 267.702H213.417C215.188 267.702 216.624 265.745 216.624 263.332V226.183C216.624 223.77 215.188 221.813 213.417 221.813Z" fill="white" fill-opacity="0.9"/>
<path d="M198.987 235.58H145.27C143.941 235.58 142.864 237.047 142.864 238.857V239.185C142.864 240.996 143.941 242.463 145.27 242.463H198.987C200.315 242.463 201.392 240.996 201.392 239.185V238.857C201.392 237.047 200.315 235.58 198.987 235.58Z" fill="#C6D7DE" fill-opacity="0.77"/>
<path d="M179.744 247.052H145.269C143.94 247.052 142.863 248.519 142.863 250.33V250.658C142.863 252.468 143.94 253.935 145.269 253.935H179.744C181.072 253.935 182.149 252.468 182.149 250.658V250.33C182.149 248.519 181.072 247.052 179.744 247.052Z" fill="#C6D7DE" fill-opacity="0.77"/>
<path fill-rule="evenodd" clip-rule="evenodd" d="M128.432 257.869C133.745 257.869 138.053 251.998 138.053 244.758C138.053 237.517 133.745 231.646 128.432 231.646C123.118 231.646 118.811 237.517 118.811 244.758C118.811 251.998 123.118 257.869 128.432 257.869Z" fill="#C6D7DE" fill-opacity="0.77"/>
<path fill-rule="evenodd" clip-rule="evenodd" d="M124.535 280.813C123.473 280.813 122.414 280.843 121.353 280.917C120.544 280.975 119.309 280.747 118.625 281.434C117.914 282.147 117.963 283.607 118.074 284.638C118.661 290.093 120.094 294.929 123.092 298.793C127.707 304.742 132.998 307.765 139.259 309.112C143.657 310.058 147.717 308.744 150.955 304.482C153.321 310.465 155.115 317.086 156.015 323.769C156.46 327.066 156.595 330.324 156.517 333.682C156.467 335.832 156.38 337.978 156.211 340.118C156.137 341.048 155.789 342.455 156.056 343.335C156.37 344.366 157.427 344.467 157.902 343.586C158.297 342.854 158.225 341.415 158.306 340.549C158.441 339.109 158.565 337.668 158.654 336.221C158.799 333.88 158.906 331.532 158.898 329.18C158.88 323.9 158.018 318.599 156.84 313.586C154.579 303.968 150.911 295.42 145.205 288.714C141.697 284.59 137.682 282.921 133.127 282.024C130.29 281.466 127.408 280.813 124.535 280.813Z" fill="#9EBEB2" fill-opacity="0.8"/>
<path fill-rule="evenodd" clip-rule="evenodd" d="M140.916 319.054C129.452 319.054 121.731 331.645 118.081 344.733C116.704 349.664 116.382 355.082 115.851 360.26C115.681 361.923 115.744 364.456 115.249 365.937C115.069 366.474 114.657 366.666 114.854 367.398C114.974 367.841 115.207 368.113 115.559 368.2C116.28 368.382 117.3 367.311 117.918 366.889C123.046 363.384 126.415 357.965 129.163 351.335C130.868 347.226 132.596 342.959 133.608 338.448C134.226 335.691 134.586 332.789 134.798 329.93C134.881 328.804 134.962 327.651 134.957 326.519C134.952 325.395 134.568 324.8 134.292 323.822C138.117 321.849 142.435 321.312 146.31 323.356C149.894 325.247 152.871 328.902 154.538 333.494C154.971 334.687 155.305 335.946 155.548 337.231C155.708 338.072 155.715 339.162 156.011 339.923C156.726 341.767 158.231 340.535 158.087 338.818C157.684 334.032 155.675 329.225 153.106 325.897C149.866 321.699 145.476 319.054 140.916 319.054Z" fill="#9EBEB2" fill-opacity="0.8"/>
<path d="M274.35 42.6267H159.7C156.157 42.6267 153.286 46.5401 153.286 51.3675V363.851C153.286 368.678 156.157 372.592 159.7 372.592H274.35C277.892 372.592 280.764 368.678 280.764 363.851V51.3675C280.764 46.5401 277.892 42.6267 274.35 42.6267Z" fill="#C6D7DE" fill-opacity="0.77"/>
<path fill-rule="evenodd" clip-rule="evenodd" d="M216.624 351.832C223.266 351.832 228.651 344.494 228.651 335.443C228.651 326.392 223.266 319.054 216.624 319.054C209.983 319.054 204.598 326.392 204.598 335.443C204.598 344.494 209.983 351.832 216.624 351.832Z" fill="white" fill-opacity="0.9"/>
<path fill-rule="evenodd" clip-rule="evenodd" d="M206.202 64.4787C207.088 64.4787 207.805 63.5009 207.805 62.2935C207.805 61.0862 207.088 60.1083 206.202 60.1083C205.316 60.1083 204.598 61.0862 204.598 62.2935C204.598 63.5009 205.316 64.4787 206.202 64.4787Z" fill="white" fill-opacity="0.9"/>
<path d="M227.047 60.1083H213.417C212.532 60.1083 211.814 61.0867 211.814 62.2935C211.814 63.5004 212.532 64.4787 213.417 64.4787H227.047C227.933 64.4787 228.651 63.5004 228.651 62.2935C228.651 61.0867 227.933 60.1083 227.047 60.1083Z" fill="white" fill-opacity="0.9"/>
<path d="M266.333 73.2195H167.718C165.947 73.2195 164.511 75.1762 164.511 77.5899V127.849C164.511 130.263 165.947 132.22 167.718 132.22H266.333C268.104 132.22 269.54 130.263 269.54 127.849V77.5899C269.54 75.1762 268.104 73.2195 266.333 73.2195Z" fill="white" fill-opacity="0.9"/>
<path d="M227.85 90.9196H174.133C172.805 90.9196 171.728 92.3871 171.728 94.1974V96.4919C171.728 98.3022 172.805 99.7697 174.133 99.7697H227.85C229.179 99.7697 230.256 98.3022 230.256 96.4919V94.1974C230.256 92.3871 229.179 90.9196 227.85 90.9196Z" fill="#C6D7DE" fill-opacity="0.77"/>
<path d="M208.607 105.67H174.132C172.804 105.67 171.727 107.137 171.727 108.947V111.242C171.727 113.052 172.804 114.52 174.132 114.52H208.607C209.936 114.52 211.013 113.052 211.013 111.242V108.947C211.013 107.137 209.936 105.67 208.607 105.67Z" fill="#C6D7DE" fill-opacity="0.77"/>
<path fill-rule="evenodd" clip-rule="evenodd" d="M258.316 110.368C261.415 110.368 263.928 106.944 263.928 102.72C263.928 98.4957 261.415 95.0715 258.316 95.0715C255.216 95.0715 252.704 98.4957 252.704 102.72C252.704 106.944 255.216 110.368 258.316 110.368Z" fill="#C6D7DE" fill-opacity="0.77"/>
<path fill-rule="evenodd" clip-rule="evenodd" d="M258.315 105.997C259.644 105.997 260.721 104.53 260.721 102.72C260.721 100.909 259.644 99.4418 258.315 99.4418C256.987 99.4418 255.91 100.909 255.91 102.72C255.91 104.53 256.987 105.997 258.315 105.997Z" fill="#F2F2F2"/>
<path d="M266.333 140.961H167.718C165.947 140.961 164.511 142.917 164.511 145.331V182.479C164.511 184.893 165.947 186.85 167.718 186.85H266.333C268.104 186.85 269.54 184.893 269.54 182.479V145.331C269.54 142.917 268.104 140.961 266.333 140.961Z" fill="white" fill-opacity="0.9"/>
<path d="M251.902 154.727H198.185C196.857 154.727 195.78 156.195 195.78 158.005V158.333C195.78 160.143 196.857 161.611 198.185 161.611H251.902C253.231 161.611 254.307 160.143 254.307 158.333V158.005C254.307 156.195 253.231 154.727 251.902 154.727Z" fill="#C6D7DE" fill-opacity="0.77"/>
<path d="M232.66 166.2H198.185C196.856 166.2 195.779 167.667 195.779 169.477V169.805C195.779 171.616 196.856 173.083 198.185 173.083H232.66C233.988 173.083 235.065 171.616 235.065 169.805V169.477C235.065 167.667 233.988 166.2 232.66 166.2Z" fill="#C6D7DE" fill-opacity="0.77"/>
<path fill-rule="evenodd" clip-rule="evenodd" d="M181.348 177.016C186.661 177.016 190.969 171.146 190.969 163.905C190.969 156.665 186.661 150.794 181.348 150.794C176.035 150.794 171.727 156.665 171.727 163.905C171.727 171.146 176.035 177.016 181.348 177.016Z" fill="#C6D7DE" fill-opacity="0.77"/>
<path d="M266.333 195.591H167.718C165.947 195.591 164.511 197.547 164.511 199.961V237.109C164.511 239.523 165.947 241.48 167.718 241.48H266.333C268.104 241.48 269.54 239.523 269.54 237.109V199.961C269.54 197.547 268.104 195.591 266.333 195.591Z" fill="white" fill-opacity="0.9"/>
<path d="M227.85 209.357H174.133C172.805 209.357 171.728 210.825 171.728 212.635V212.963C171.728 214.773 172.805 216.241 174.133 216.241H227.85C229.179 216.241 230.256 214.773 230.256 212.963V212.635C230.256 210.825 229.179 209.357 227.85 209.357Z" fill="#C6D7DE" fill-opacity="0.77"/>
<path d="M208.607 220.83H174.132C172.804 220.83 171.727 222.297 171.727 224.107V224.435C171.727 226.245 172.804 227.713 174.132 227.713H208.607C209.936 227.713 211.013 226.245 211.013 224.435V224.107C211.013 222.297 209.936 220.83 208.607 220.83Z" fill="#C6D7DE" fill-opacity="0.77"/>
<path fill-rule="evenodd" clip-rule="evenodd" d="M258.316 226.183C261.415 226.183 263.928 222.759 263.928 218.535C263.928 214.311 261.415 210.887 258.316 210.887C255.216 210.887 252.704 214.311 252.704 218.535C252.704 222.759 255.216 226.183 258.316 226.183Z" fill="#C6D7DE" fill-opacity="0.77"/>
<path fill-rule="evenodd" clip-rule="evenodd" d="M258.315 221.813C259.644 221.813 260.721 220.346 260.721 218.535C260.721 216.725 259.644 215.257 258.315 215.257C256.987 215.257 255.91 216.725 255.91 218.535C255.91 220.346 256.987 221.813 258.315 221.813Z" fill="#F2F2F2"/>
<path d="M266.333 250.221H167.718C165.947 250.221 164.511 252.177 164.511 254.591V291.739C164.511 294.153 165.947 296.11 167.718 296.11H266.333C268.104 296.11 269.54 294.153 269.54 291.739V254.591C269.54 252.177 268.104 250.221 266.333 250.221Z" fill="white" fill-opacity="0.9"/>
<path d="M251.902 263.987H198.185C196.857 263.987 195.78 265.455 195.78 267.265V267.593C195.78 269.403 196.857 270.871 198.185 270.871H251.902C253.231 270.871 254.307 269.403 254.307 267.593V267.265C254.307 265.455 253.231 263.987 251.902 263.987Z" fill="#C6D7DE" fill-opacity="0.77"/>
<path d="M232.66 275.46H198.185C196.856 275.46 195.779 276.927 195.779 278.737V279.065C195.779 280.875 196.856 282.343 198.185 282.343H232.66C233.988 282.343 235.065 280.875 235.065 279.065V278.737C235.065 276.927 233.988 275.46 232.66 275.46Z" fill="#C6D7DE" fill-opacity="0.77"/>
<path fill-rule="evenodd" clip-rule="evenodd" d="M181.348 286.276C186.661 286.276 190.969 280.406 190.969 273.165C190.969 265.924 186.661 260.054 181.348 260.054C176.035 260.054 171.727 265.924 171.727 273.165C171.727 280.406 176.035 286.276 181.348 286.276Z" fill="#C6D7DE" fill-opacity="0.77"/>
<path d="M468.373 69.9417H212.615C209.073 69.9417 206.201 73.8551 206.201 78.6825V439.24C206.201 444.067 209.073 447.981 212.615 447.981H468.373C471.915 447.981 474.787 444.067 474.787 439.24V78.6825C474.787 73.8551 471.915 69.9417 468.373 69.9417Z" fill="#F2F2F2"/>
<path d="M455.545 116.923H412.251C408.709 116.923 405.837 120.837 405.837 125.664V196.683C405.837 201.511 408.709 205.424 412.251 205.424H455.545C459.088 205.424 461.959 201.511 461.959 196.683V125.664C461.959 120.837 459.088 116.923 455.545 116.923Z" fill="white" fill-opacity="0.9"/>
<path fill-rule="evenodd" clip-rule="evenodd" d="M433.898 168.276C440.983 168.276 446.726 160.449 446.726 150.794C446.726 141.139 440.983 133.312 433.898 133.312C426.813 133.312 421.07 141.139 421.07 150.794C421.07 160.449 426.813 168.276 433.898 168.276Z" fill="#C6D7DE" fill-opacity="0.77"/>
<path d="M451.536 172.646H416.259C414.931 172.646 413.854 174.114 413.854 175.924C413.854 177.734 414.931 179.202 416.259 179.202H451.536C452.865 179.202 453.941 177.734 453.941 175.924C453.941 174.114 452.865 172.646 451.536 172.646Z" fill="#C6D7DE" fill-opacity="0.77"/>
<path d="M445.122 183.572H422.673C421.345 183.572 420.268 185.039 420.268 186.85C420.268 188.66 421.345 190.128 422.673 190.128H445.122C446.451 190.128 447.528 188.66 447.528 186.85C447.528 185.039 446.451 183.572 445.122 183.572Z" fill="#C6D7DE" fill-opacity="0.77"/>
<path d="M206.201 78.6825C206.201 73.8554 209.073 69.9417 212.615 69.9417H468.373C471.915 69.9417 474.787 73.8554 474.787 78.6825V99.4419H206.201V78.6825Z" fill="#C6D7DE" fill-opacity="0.77"/>
<path fill-rule="evenodd" clip-rule="evenodd" d="M216.624 89.6084C218.395 89.6084 219.831 87.6516 219.831 85.238C219.831 82.8245 218.395 80.8676 216.624 80.8676C214.853 80.8676 213.417 82.8245 213.417 85.238C213.417 87.6516 214.853 89.6084 216.624 89.6084Z" fill="#F2F2F2"/>
<path fill-rule="evenodd" clip-rule="evenodd" d="M226.245 89.6084C228.016 89.6084 229.452 87.6516 229.452 85.238C229.452 82.8245 228.016 80.8676 226.245 80.8676C224.474 80.8676 223.038 82.8245 223.038 85.238C223.038 87.6516 224.474 89.6084 226.245 89.6084Z" fill="#F2F2F2"/>
<path fill-rule="evenodd" clip-rule="evenodd" d="M235.866 89.6084C237.637 89.6084 239.073 87.6516 239.073 85.238C239.073 82.8245 237.637 80.8676 235.866 80.8676C234.095 80.8676 232.659 82.8245 232.659 85.238C232.659 87.6516 234.095 89.6084 235.866 89.6084Z" fill="#F2F2F2"/>
<path d="M455.545 214.165H412.251C408.709 214.165 405.837 218.078 405.837 222.905V417.388C405.837 422.215 408.709 426.129 412.251 426.129H455.545C459.088 426.129 461.959 422.215 461.959 417.388V222.905C461.959 218.078 459.088 214.165 455.545 214.165Z" fill="white" fill-opacity="0.9"/>
<path d="M444.321 233.832H423.476C421.704 233.832 420.269 235.788 420.269 238.202V257.869C420.269 260.282 421.704 262.239 423.476 262.239H444.321C446.092 262.239 447.528 260.282 447.528 257.869V238.202C447.528 235.788 446.092 233.832 444.321 233.832Z" fill="#C6D7DE" fill-opacity="0.77"/>
<path d="M444.321 270.98H423.476C421.704 270.98 420.269 272.937 420.269 275.35V293.924C420.269 296.338 421.704 298.295 423.476 298.295H444.321C446.092 298.295 447.528 296.338 447.528 293.924V275.35C447.528 272.937 446.092 270.98 444.321 270.98Z" fill="#C6D7DE" fill-opacity="0.77"/>
<path d="M444.321 307.036H423.476C421.704 307.036 420.269 308.992 420.269 311.406V329.98C420.269 332.394 421.704 334.351 423.476 334.351H444.321C446.092 334.351 447.528 332.394 447.528 329.98V311.406C447.528 308.992 446.092 307.036 444.321 307.036Z" fill="#C6D7DE" fill-opacity="0.77"/>
<path d="M444.321 379.147H423.476C421.704 379.147 420.269 381.104 420.269 383.518V402.092C420.269 404.505 421.704 406.462 423.476 406.462H444.321C446.092 406.462 447.528 404.505 447.528 402.092V383.518C447.528 381.104 446.092 379.147 444.321 379.147Z" fill="#C6D7DE" fill-opacity="0.77"/>
<path d="M444.321 343.091H423.476C421.704 343.091 420.269 345.048 420.269 347.462V366.036C420.269 368.45 421.704 370.406 423.476 370.406H444.321C446.092 370.406 447.528 368.45 447.528 366.036V347.462C447.528 345.048 446.092 343.091 444.321 343.091Z" fill="#C6D7DE" fill-opacity="0.77"/>
<path d="M396.215 118.016H222.236C220.465 118.016 219.029 119.973 219.029 122.386V164.998C219.029 167.411 220.465 169.368 222.236 169.368H396.215C397.986 169.368 399.422 167.411 399.422 164.998V122.386C399.422 119.973 397.986 118.016 396.215 118.016Z" fill="white" fill-opacity="0.9"/>
<path d="M357.732 133.422H228.65C227.322 133.422 226.245 134.889 226.245 136.699V137.847C226.245 139.657 227.322 141.124 228.65 141.124H357.732C359.06 141.124 360.137 139.657 360.137 137.847V136.699C360.137 134.889 359.06 133.422 357.732 133.422Z" fill="#C6D7DE" fill-opacity="0.77"/>
<path d="M313.712 146.26H228.65C227.321 146.26 226.245 147.727 226.245 149.538V150.685C226.245 152.495 227.321 153.963 228.65 153.963H313.712C315.041 153.963 316.117 152.495 316.117 150.685V149.538C316.117 147.727 315.041 146.26 313.712 146.26Z" fill="#C6D7DE" fill-opacity="0.77"/>
<path fill-rule="evenodd" clip-rule="evenodd" d="M380.143 151.34C383.243 151.34 385.756 147.916 385.756 143.692C385.756 139.468 383.243 136.044 380.143 136.044C377.044 136.044 374.531 139.468 374.531 143.692C374.531 147.916 377.044 151.34 380.143 151.34Z" fill="#C6D7DE" fill-opacity="0.77"/>
<path fill-rule="evenodd" clip-rule="evenodd" d="M380.144 146.97C381.472 146.97 382.549 145.503 382.549 143.692C382.549 141.882 381.472 140.414 380.144 140.414C378.815 140.414 377.738 141.882 377.738 143.692C377.738 145.503 378.815 146.97 380.144 146.97Z" fill="#F2F2F2"/>
<path d="M396.215 178.109H222.236C220.465 178.109 219.029 180.066 219.029 182.479V216.35C219.029 218.764 220.465 220.72 222.236 220.72H396.215C397.986 220.72 399.422 218.764 399.422 216.35V182.479C399.422 180.066 397.986 178.109 396.215 178.109Z" fill="white" fill-opacity="0.9"/>
<path d="M357.792 190.892H228.59C227.295 190.892 226.245 192.323 226.245 194.088C226.245 195.853 227.295 197.284 228.59 197.284H357.792C359.087 197.284 360.137 195.853 360.137 194.088C360.137 192.323 359.087 190.892 357.792 190.892Z" fill="#C6D7DE" fill-opacity="0.77"/>
<path d="M313.772 201.545H228.59C227.295 201.545 226.245 202.976 226.245 204.741C226.245 206.506 227.295 207.937 228.59 207.937H313.772C315.068 207.937 316.117 206.506 316.117 204.741C316.117 202.976 315.068 201.545 313.772 201.545Z" fill="#C6D7DE" fill-opacity="0.77"/>
<path fill-rule="evenodd" clip-rule="evenodd" d="M380.143 207.063C383.243 207.063 385.756 203.639 385.756 199.415C385.756 195.191 383.243 191.766 380.143 191.766C377.044 191.766 374.531 195.191 374.531 199.415C374.531 203.639 377.044 207.063 380.143 207.063Z" fill="#C6D7DE" fill-opacity="0.77"/>
<path fill-rule="evenodd" clip-rule="evenodd" d="M380.144 202.692C381.472 202.692 382.549 201.225 382.549 199.415C382.549 197.604 381.472 196.137 380.144 196.137C378.815 196.137 377.738 197.604 377.738 199.415C377.738 201.225 378.815 202.692 380.144 202.692Z" fill="#F2F2F2"/>
<path d="M396.215 229.461H222.236C220.465 229.461 219.029 231.418 219.029 233.832V267.702C219.029 270.116 220.465 272.072 222.236 272.072H396.215C397.986 272.072 399.422 270.116 399.422 267.702V233.832C399.422 231.418 397.986 229.461 396.215 229.461Z" fill="white" fill-opacity="0.9"/>
<path d="M357.792 242.245H228.59C227.295 242.245 226.245 243.675 226.245 245.44C226.245 247.205 227.295 248.636 228.59 248.636H357.792C359.087 248.636 360.137 247.205 360.137 245.44C360.137 243.675 359.087 242.245 357.792 242.245Z" fill="#C6D7DE" fill-opacity="0.77"/>
<path d="M313.772 252.897H228.59C227.295 252.897 226.245 254.328 226.245 256.093C226.245 257.858 227.295 259.289 228.59 259.289H313.772C315.068 259.289 316.117 257.858 316.117 256.093C316.117 254.328 315.068 252.897 313.772 252.897Z" fill="#C6D7DE" fill-opacity="0.77"/>
<path fill-rule="evenodd" clip-rule="evenodd" d="M380.143 258.415C383.243 258.415 385.756 254.991 385.756 250.767C385.756 246.543 383.243 243.119 380.143 243.119C377.044 243.119 374.531 246.543 374.531 250.767C374.531 254.991 377.044 258.415 380.143 258.415Z" fill="#C6D7DE" fill-opacity="0.77"/>
<path fill-rule="evenodd" clip-rule="evenodd" d="M380.144 254.045C381.472 254.045 382.549 252.577 382.549 250.767C382.549 248.956 381.472 247.489 380.144 247.489C378.815 247.489 377.738 248.956 377.738 250.767C377.738 252.577 378.815 254.045 380.144 254.045Z" fill="#C6D7DE" fill-opacity="0.77"/>
<path d="M396.215 383.518H222.236C220.465 383.518 219.029 385.474 219.029 387.888V421.758C219.029 424.172 220.465 426.129 222.236 426.129H396.215C397.986 426.129 399.422 424.172 399.422 421.758V387.888C399.422 385.474 397.986 383.518 396.215 383.518Z" fill="white" fill-opacity="0.9"/>
<path d="M357.792 396.301H228.59C227.295 396.301 226.245 397.732 226.245 399.497C226.245 401.262 227.295 402.693 228.59 402.693H357.792C359.087 402.693 360.137 401.262 360.137 399.497C360.137 397.732 359.087 396.301 357.792 396.301Z" fill="#C6D7DE" fill-opacity="0.77"/>
<path d="M313.772 406.954H228.59C227.295 406.954 226.245 408.385 226.245 410.15C226.245 411.915 227.295 413.346 228.59 413.346H313.772C315.068 413.346 316.117 411.915 316.117 410.15C316.117 408.385 315.068 406.954 313.772 406.954Z" fill="#C6D7DE" fill-opacity="0.77"/>
<path fill-rule="evenodd" clip-rule="evenodd" d="M380.143 412.471C383.243 412.471 385.756 409.047 385.756 404.823C385.756 400.599 383.243 397.175 380.143 397.175C377.044 397.175 374.531 400.599 374.531 404.823C374.531 409.047 377.044 412.471 380.143 412.471Z" fill="#C6D7DE" fill-opacity="0.77"/>
<path fill-rule="evenodd" clip-rule="evenodd" d="M380.144 408.101C381.472 408.101 382.549 406.634 382.549 404.823C382.549 403.013 381.472 401.545 380.144 401.545C378.815 401.545 377.738 403.013 377.738 404.823C377.738 406.634 378.815 408.101 380.144 408.101Z" fill="#F2F2F2"/>
<path d="M396.215 332.165H222.236C220.465 332.165 219.029 334.122 219.029 336.536V370.406C219.029 372.82 220.465 374.777 222.236 374.777H396.215C397.986 374.777 399.422 372.82 399.422 370.406V336.536C399.422 334.122 397.986 332.165 396.215 332.165Z" fill="white" fill-opacity="0.9"/>
<path d="M357.792 344.949H228.59C227.295 344.949 226.245 346.38 226.245 348.145C226.245 349.91 227.295 351.341 228.59 351.341H357.792C359.087 351.341 360.137 349.91 360.137 348.145C360.137 346.38 359.087 344.949 357.792 344.949Z" fill="#C6D7DE" fill-opacity="0.77"/>
<path d="M313.772 355.602H228.59C227.295 355.602 226.245 357.032 226.245 358.798C226.245 360.563 227.295 361.993 228.59 361.993H313.772C315.068 361.993 316.117 360.563 316.117 358.798C316.117 357.032 315.068 355.602 313.772 355.602Z" fill="#C6D7DE" fill-opacity="0.77"/>
<path fill-rule="evenodd" clip-rule="evenodd" d="M380.143 361.119C383.243 361.119 385.756 357.695 385.756 353.471C385.756 349.247 383.243 345.823 380.143 345.823C377.044 345.823 374.531 349.247 374.531 353.471C374.531 357.695 377.044 361.119 380.143 361.119Z" fill="#C6D7DE" fill-opacity="0.77"/>
<path fill-rule="evenodd" clip-rule="evenodd" d="M380.144 356.749C381.472 356.749 382.549 355.282 382.549 353.471C382.549 351.661 381.472 350.193 380.144 350.193C378.815 350.193 377.738 351.661 377.738 353.471C377.738 355.282 378.815 356.749 380.144 356.749Z" fill="#F2F2F2"/>
<path d="M396.215 280.813H222.236C220.465 280.813 219.029 282.77 219.029 285.184V319.054C219.029 321.468 220.465 323.425 222.236 323.425H396.215C397.986 323.425 399.422 321.468 399.422 319.054V285.184C399.422 282.77 397.986 280.813 396.215 280.813Z" fill="white" fill-opacity="0.9"/>
<path d="M357.792 293.597H228.59C227.295 293.597 226.245 295.028 226.245 296.793C226.245 298.558 227.295 299.988 228.59 299.988H357.792C359.087 299.988 360.137 298.558 360.137 296.793C360.137 295.028 359.087 293.597 357.792 293.597Z" fill="#C6D7DE" fill-opacity="0.77"/>
<path d="M313.772 304.25H228.59C227.295 304.25 226.245 305.68 226.245 307.445C226.245 309.21 227.295 310.641 228.59 310.641H313.772C315.068 310.641 316.117 309.21 316.117 307.445C316.117 305.68 315.068 304.25 313.772 304.25Z" fill="#C6D7DE" fill-opacity="0.77"/>
<path fill-rule="evenodd" clip-rule="evenodd" d="M380.143 309.767C383.243 309.767 385.756 306.343 385.756 302.119C385.756 297.895 383.243 294.471 380.143 294.471C377.044 294.471 374.531 297.895 374.531 302.119C374.531 306.343 377.044 309.767 380.143 309.767Z" fill="#C6D7DE" fill-opacity="0.77"/>
<path fill-rule="evenodd" clip-rule="evenodd" d="M380.144 305.397C381.472 305.397 382.549 303.929 382.549 302.119C382.549 300.309 381.472 298.841 380.144 298.841C378.815 298.841 377.738 300.309 377.738 302.119C377.738 303.929 378.815 305.397 380.144 305.397Z" fill="#F2F2F2"/>
<path d="M403.802 38.241C403.802 36.4307 402.725 34.9632 401.397 34.9632C400.069 34.9632 398.992 36.4307 398.992 38.241V59.0003C398.992 60.8106 400.069 62.2781 401.397 62.2781C402.725 62.2781 403.802 60.8106 403.802 59.0003V38.241Z" fill="#C6D7DE" fill-opacity="0.77"/>
<path d="M415.027 20.7594C415.027 18.9491 413.95 17.4816 412.622 17.4816C411.293 17.4816 410.216 18.9491 410.216 20.7594V59.0003C410.216 60.8106 411.293 62.2781 412.622 62.2781C413.95 62.2781 415.027 60.8106 415.027 59.0003V20.7594Z" fill="#C6D7DE" fill-opacity="0.77"/>
<path d="M426.251 12.0185C426.251 10.2083 425.174 8.74075 423.846 8.74075C422.517 8.74075 421.44 10.2083 421.44 12.0185V59.0003C421.44 60.8106 422.517 62.2781 423.846 62.2781C425.174 62.2781 426.251 60.8106 426.251 59.0003V12.0185Z" fill="#C6D7DE" fill-opacity="0.77"/>
<path d="M437.476 20.7594C437.476 18.9491 436.399 17.4816 435.071 17.4816C433.742 17.4816 432.666 18.9491 432.666 20.7594V59.0003C432.666 60.8106 433.742 62.2781 435.071 62.2781C436.399 62.2781 437.476 60.8106 437.476 59.0003V20.7594Z" fill="#C6D7DE" fill-opacity="0.77"/>
<path d="M448.701 3.2778C448.701 1.46752 447.624 0 446.295 0C444.967 0 443.89 1.46752 443.89 3.2778V59.0003C443.89 60.8106 444.967 62.2781 446.295 62.2781C447.624 62.2781 448.701 60.8106 448.701 59.0003V3.2778Z" fill="#C6D7DE" fill-opacity="0.77"/>
<path fill-rule="evenodd" clip-rule="evenodd" d="M12.1782 322.612C12.1782 310.441 19.3956 300.48 28.2132 300.48V322.612L17.2549 338.721C14.1377 334.782 12.1782 329.004 12.1782 322.612Z" fill="#F2F2F2"/>
<path fill-rule="evenodd" clip-rule="evenodd" d="M27.789 322.332H43.9821C43.9821 328.036 42.2746 333.381 39.5751 337.266C36.6061 341.514 32.3781 344.184 27.789 344.184C23.5618 344.184 19.6924 341.88 16.7227 338.237L27.789 322.332Z" fill="#C6D7DE" fill-opacity="0.77"/>
<path fill-rule="evenodd" clip-rule="evenodd" d="M44.2482 322.332C44.2482 310.316 37.0308 300.48 28.2132 300.48V322.332H44.2482ZM20.1957 300.48L26.6097 320.147L12.1782 311.406C13.6053 306.308 16.8099 302.425 20.1957 300.48Z" fill="#C6D7DE" fill-opacity="0.77"/>
<path fill-rule="evenodd" clip-rule="evenodd" d="M371.583 46.3679C369.988 48.2028 367.729 49.3551 365.215 49.3551C360.386 49.3551 356.472 45.1266 356.472 39.9106C356.472 34.6946 360.386 30.4662 365.215 30.4662V12.9265C351.478 12.9265 340.233 25.0721 340.233 39.9106C340.233 54.7492 351.478 66.8947 365.215 66.8947C372.431 66.8947 378.953 63.5968 383.399 58.3513L371.583 46.3679Z" fill="#F2F2F2"/>
<path fill-rule="evenodd" clip-rule="evenodd" d="M365.053 12.9265V30.4662C369.851 30.4662 373.74 34.6946 373.74 39.9106H389.873C389.873 25.0721 378.702 12.9265 365.053 12.9265Z" fill="#C6D7DE" fill-opacity="0.77"/>
<path fill-rule="evenodd" clip-rule="evenodd" d="M373.765 39.9106C373.765 42.9085 372.466 45.5733 370.449 47.2938L380.373 61.0286C386.151 56.1114 389.874 48.4892 389.874 39.9106H373.765Z" fill="#C6D7DE" fill-opacity="0.77"/>
<path fill-rule="evenodd" clip-rule="evenodd" d="M414.21 467.294C414.213 467.305 414.216 467.316 414.22 467.33C414.216 467.319 414.21 467.274 414.21 467.294Z" fill="#C6D7DE" fill-opacity="0.77"/>
<path fill-rule="evenodd" clip-rule="evenodd" d="M414.217 467.31C414.217 467.312 414.218 467.316 414.218 467.32C414.218 467.31 414.205 467.278 414.217 467.31Z" fill="#C6D7DE" fill-opacity="0.77"/>
<path fill-rule="evenodd" clip-rule="evenodd" d="M414.162 467.125C414.173 467.169 414.188 467.211 414.201 467.255C414.194 467.233 414.188 467.215 414.181 467.193C414.348 467.762 414.242 467.393 414.162 467.125Z" fill="#C6D7DE" fill-opacity="0.77"/>
<path fill-rule="evenodd" clip-rule="evenodd" d="M414.199 467.258C414.205 467.277 414.211 467.299 414.217 467.318C414.262 467.44 414.199 467.258 414.199 467.258Z" fill="#C6D7DE" fill-opacity="0.77"/>
<path fill-rule="evenodd" clip-rule="evenodd" d="M414.217 467.31C414.217 467.308 414.217 467.308 414.215 467.307C414.217 467.308 414.217 467.308 414.217 467.31Z" fill="#C6D7DE" fill-opacity="0.77"/>
<path fill-rule="evenodd" clip-rule="evenodd" d="M414.223 467.327C414.232 467.353 414.181 467.226 414.223 467.327V467.327Z" fill="#C6D7DE" fill-opacity="0.77"/>
<path fill-rule="evenodd" clip-rule="evenodd" d="M414.217 467.31L414.215 467.307C414.216 467.308 414.216 467.31 414.217 467.31Z" fill="#C6D7DE" fill-opacity="0.77"/>
<path d="M360.499 383.179H467.934C469.705 383.179 471.141 385.136 471.141 387.549V481.513C471.141 483.927 469.705 485.883 467.934 485.883H360.499C358.728 485.883 357.292 483.927 357.292 481.513V387.549C357.292 385.136 358.728 383.179 360.499 383.179Z" fill="#C6D7DE" fill-opacity="0.77"/>
<path fill-rule="evenodd" clip-rule="evenodd" d="M428.867 412.679L461.783 485.883H395.952L428.867 412.679Z" fill="#C6D7DE" fill-opacity="0.77"/>
<path fill-rule="evenodd" clip-rule="evenodd" d="M394.929 432.288L424.029 485.883H365.83L394.929 432.288Z" fill="#C6D7DE" fill-opacity="0.77"/>
<path fill-rule="evenodd" clip-rule="evenodd" d="M382.547 432.346C376.569 432.346 371.723 425.742 371.723 417.596C371.723 409.449 376.569 402.846 382.547 402.846C388.525 402.846 393.37 409.449 393.37 417.596C393.37 425.742 388.525 432.346 382.547 432.346Z" fill="white" fill-opacity="0.9"/>
<path fill-rule="evenodd" clip-rule="evenodd" d="M443.837 126.125C447.901 141.109 453.196 174.79 447.793 180.073H413.607C413.603 180.012 413.6 179.952 413.596 179.892C400.926 178.488 391.071 167.738 391.071 154.684V129.911C391.071 115.904 402.418 104.549 416.416 104.549H418.773C431.485 104.549 442.011 113.914 443.837 126.125Z" fill="#342B2B"/>
<path fill-rule="evenodd" clip-rule="evenodd" d="M404.347 149.954C398.915 143.573 395.238 135.754 395.853 126.992C397.623 101.747 432.74 107.301 439.571 120.042C446.402 132.784 445.591 165.104 436.762 167.381C433.241 168.289 425.741 166.065 418.107 161.46L422.899 195.382H394.607L404.347 149.954Z" fill="#F7D2A7"/>
<path fill-rule="evenodd" clip-rule="evenodd" d="M411.995 145.689C413.298 159.701 412.776 175.702 408.891 179.501H374.705C372.8 146.384 391.209 159.208 391.209 128.027C392.356 126.905 393.441 125.795 394.514 124.837L394.476 123.92C400.396 111.792 407.906 105.729 417.006 105.729C430.657 105.729 434.966 112.085 438.635 117.482C435.891 126.901 425.245 128.298 415.785 134.169C414.67 133.263 413.249 132.72 411.7 132.72C408.119 132.72 405.216 135.624 405.216 139.208C405.216 142.791 408.119 145.696 411.7 145.696C411.799 145.696 411.897 145.694 411.995 145.689Z" fill="#342B2B"/>
<path fill-rule="evenodd" clip-rule="evenodd" d="M349.113 409.003C377.393 416.918 401.791 420.876 422.309 420.876C442.826 420.876 461.884 414.781 479.482 402.592C451.808 394.468 429.018 390.405 411.11 390.405C393.203 390.405 372.537 396.605 349.113 409.003Z" fill="#FFF1E0"/>
<path fill-rule="evenodd" clip-rule="evenodd" d="M446.79 432.285C446.517 431.875 446.287 431.428 446.104 430.945C442.324 420.942 381.778 313.024 375.746 293.293H443.912C448.499 308.294 469.14 402.434 472.045 421.217C481.211 450.844 500.083 546.795 502.492 553.442C505.026 560.435 490.766 567.719 486.966 559.123C480.92 545.444 466.514 507.595 460.099 484.484C454.085 462.819 449.189 443.327 446.79 432.285Z" fill="#F7D2A7"/>
<path fill-rule="evenodd" clip-rule="evenodd" d="M391.019 445.461C363.339 452.462 262.088 465.119 255.139 467.104C247.992 469.146 241.725 454.403 250.56 451.209C264.617 446.128 303.353 434.386 326.838 429.595C345.728 425.741 362.966 422.596 374.539 420.755C373.558 388.224 369.076 310.155 372.014 293.293H432.329C429.512 309.462 405.699 427.441 401.273 439.25C399.869 443.466 395.678 445.329 391.019 445.461Z" fill="#F7D2A7"/>
<path fill-rule="evenodd" clip-rule="evenodd" d="M251.201 447.284C247.505 446.596 244.796 446.404 243.075 446.707C240.982 447.077 237.988 447.965 234.095 449.371C234.523 451.802 238.372 473.643 245.64 514.895C251.566 515.605 254.429 514.086 254.231 510.339C254.034 506.591 253.902 503.472 253.835 500.982L262.037 468.133C262.194 467.501 261.81 466.861 261.179 466.703C261.168 466.7 261.157 466.697 261.146 466.695L256.056 465.575C253.874 462.458 252.596 459.838 252.222 457.715C251.918 455.99 252.194 453.484 253.051 450.199L253.051 450.199C253.38 448.938 252.625 447.649 251.365 447.32C251.311 447.306 251.256 447.294 251.201 447.284Z" fill="white" fill-opacity="0.9"/>
<path fill-rule="evenodd" clip-rule="evenodd" d="M482.639 558.009C481.321 561.532 480.661 564.168 480.661 565.917C480.661 568.045 481.015 571.149 481.724 575.23C484.19 575.23 506.352 575.23 548.211 575.23C549.939 569.514 548.942 566.428 545.219 565.972C541.497 565.517 538.404 565.105 535.942 564.738L505.039 550.951C504.445 550.686 503.748 550.953 503.483 551.549C503.478 551.559 503.474 551.569 503.469 551.579L501.483 556.401C498.037 558.01 495.237 558.815 493.082 558.815C491.332 558.815 488.914 558.107 485.83 556.692L485.83 556.692C484.646 556.149 483.247 556.669 482.704 557.854C482.681 557.905 482.659 557.957 482.639 558.009Z" fill="white"/>
<path fill-rule="evenodd" clip-rule="evenodd" d="M372.209 293.293C398.788 285.684 423.936 285.684 447.654 293.293C455.906 330.968 475.956 345.922 479.482 403.684C439.402 423.613 389.892 389.471 348.633 408.905C336.844 381.721 353.348 316.255 372.209 293.293Z" fill="white"/>
<path fill-rule="evenodd" clip-rule="evenodd" d="M486.555 246.474L533.099 240.121C542.409 234.938 550.974 231.43 558.794 229.596C560.995 229.531 564.496 230.332 559.281 234.682C554.065 239.033 548.774 243.846 549.703 246.168C550.632 248.49 555.482 247.626 556.286 251.197C556.821 253.578 548.95 253.965 532.672 252.358L494.906 267.341L486.555 246.474ZM340.345 257.255L366.158 257.351C337.853 321.093 323.095 354.466 321.883 357.473C319.155 364.238 324.927 374.54 327.396 380.077C319.356 383.677 320.213 370.344 310.071 375.066C300.814 379.376 293.772 387.185 283.077 380.581C281.762 379.769 280.321 376.712 283.803 374.323C292.476 368.372 304.975 357.955 306.664 354.527C308.967 349.851 320.194 317.427 340.345 257.255Z" fill="#F7D2A7"/>
<path fill-rule="evenodd" clip-rule="evenodd" d="M411.051 175.328L431.262 176.675C436.239 221.74 463.352 250.204 524.055 240.568L532.12 298.6C475.383 305.938 425.625 283.207 415.428 221.663C412.788 205.731 410.704 189.151 411.051 175.328Z" fill="#D86847"/>
<path fill-rule="evenodd" clip-rule="evenodd" d="M401.079 169.449L431.701 176.467C431.701 229.173 448.479 262.8 457.084 301.551H374.382C373.217 314.941 372.502 328.704 372.129 342.839H310.205C324.237 268.124 353.855 210.321 399.058 169.43H401.063L401.079 169.449Z" fill="#D86847"/>
<path fill-rule="evenodd" clip-rule="evenodd" d="M387.431 226.359C385.3 259.202 386.553 284.266 391.191 301.551H374.383C376.691 275.025 380.763 249.961 387.431 226.359V226.359Z" fill="black" fill-opacity="0.1"/>
<ellipse cx="430.852" cy="137.743" rx="2.19311" ry="3.40456" fill="#342B2B"/>
<ellipse cx="430.852" cy="140.722" rx="3.9476" ry="2.97899" fill="#F7D2A7"/>
<ellipse cx="430.852" cy="140.722" rx="3.9476" ry="2.97899" fill="#F7D2A7"/>
<ellipse cx="441.817" cy="139.871" rx="1.75449" ry="2.97899" fill="#342B2B"/>
<ellipse rx="5.60207" ry="5.1697" transform="matrix(0.178806 0.983884 -0.985679 0.16863 433.63 150.936)" fill="white"/>
<rect width="14.4086" height="7.61193" transform="matrix(0.942932 0.332987 -0.351232 0.936288 428.169 142.244)" fill="#F7D2A7"/>
<ellipse cx="440.502" cy="142.425" rx="3.07035" ry="2.97899" fill="#F7D2A7"/>
<ellipse cx="440.502" cy="142.425" rx="3.07035" ry="2.97899" fill="#F7D2A7"/>
</svg>
